<svg xmlns="http://www.w3.org/2000/svg" xmlns:xlink="http://www.w3.org/1999/xlink">
<path d="m38.027 7.192.19-1.808a.752.752 0 0 0-.746-.828H10.804a.752.752 0 0 0-.746.828l.186 1.766c-4.004.473-7.123 3.883-7.123 8.013 0 3.576 2.397 6.767 5.83 7.759l.416-1.441a6.605 6.605 0 0 1-4.746-6.317c0-3.356 2.529-6.127 5.78-6.521l1.208 11.468a12.563 12.563 0 0 0 11.576 11.235c-1.174 7.977-9.333 11.228-9.418 11.261a.75.75 0 0 0 .268 1.45h20.338a.75.75 0 0 0 .268-1.45c-.085-.033-8.252-3.292-9.474-11.265 6-.483 10.86-5.146 11.501-11.231l1.203-11.426c3.119.512 5.508 3.219 5.508 6.48a6.605 6.605 0 0 1-4.746 6.317l.416 1.441c3.433-.992 5.83-4.183 5.83-7.759 0-4.035-2.979-7.379-6.851-7.971zm-6.71 35.364H17.09c2.405-1.519 5.698-4.307 7.092-8.74 1.419 4.433 4.725 7.222 7.135 8.74zm3.858-22.603c-.596 5.664-5.341 9.936-11.037 9.936s-10.441-4.271-11.037-9.936L11.637 6.056h25.001l-1.463 13.897z"/>
</svg>